<?xml version="1.0" standalone="no"?>
<!DOCTYPE svg PUBLIC "-//W3C//DTD SVG 20010904//EN"
 "http://www.w3.org/TR/2001/REC-SVG-20010904/DTD/svg10.dtd">
<svg version="1.0" xmlns="http://www.w3.org/2000/svg"
 width="512.000000pt" height="512.000000pt" viewBox="0 0 512.000000 512.000000"
 preserveAspectRatio="xMidYMid meet">
<metadata>
Created by potrace 1.14, written by Peter Selinger 2001-2017
</metadata>
<g transform="translate(0.000000,512.000000) scale(0.100000,-0.100000)"
fill="#000000" stroke="none">
<path d="M664 5039 c-231 -27 -447 -161 -574 -355 l-50 -77 0 -2046 c0 -1973
1 -2048 19 -2083 33 -65 124 -170 199 -230 89 -71 200 -128 319 -165 l88 -28
1825 -3 1825 -3 99 26 c317 80 551 299 647 605 l24 75 0 1780 0 1780 -23 84
c-32 118 -66 194 -128 287 -131 198 -332 324 -564 353 -102 13 -3596 13 -3706
0z m3681 -208 c126 -42 222 -98 304 -180 87 -86 139 -171 179 -286 l27 -80 0
-1710 0 -1710 -28 -80 c-78 -229 -249 -392 -487 -467 l-75 -23 -1765 0 -1765
0 -90 32 c-227 79 -383 228 -463 444 l-27 74 -3 1690 c-3 1893 -7 1779 69
1932 49 99 161 225 253 285 71 46 193 86 290 96 39 4 845 7 1791 7 l1720 0 70
-24z"/>
<path d="M785 4630 c-161 -33 -286 -127 -362 -273 -67 -129 -64 -31 -61 -1817
3 -1604 3 -1615 24 -1671 64 -174 198 -299 366 -343 81 -21 3405 -22 3496 -1
200 47 360 218 391 420 7 48 10 573 8 1670 l-2 1600 -24 65 c-13 36 -38 88
-56 115 -43 68 -139 154 -209 188 -121 59 -41 57 -1861 56 -919 -1 -1688 -5
-1710 -9z m1780 -207 c176 -34 438 -137 518 -204 l31 -26 -20 -164 c-20 -172
-23 -523 -6 -639 l8 -55 37 114 c32 100 54 190 123 511 21 101 36 150 44 150
11 0 170 -109 225 -154 188 -154 386 -343 444 -424 l20 -29 -88 -6 c-103 -8
-204 -27 -321 -63 -94 -29 -360 -131 -373 -144 -13 -12 222 -23 325 -15 51 4
145 16 208 27 63 10 177 22 252 25 l137 6 29 -31 c78 -83 231 -348 277 -479
29 -84 58 -194 52 -200 -3 -2 -56 26 -118 63 -117 68 -328 175 -504 256 -55
25 -126 58 -159 73 -179 82 -458 196 -465 190 -2 -3 -2 -6 0 -8 48 -37 335
-236 394 -274 414 -268 570 -361 758 -454 l127 -64 0 -60 c0 -134 -45 -264
-112 -320 -44 -37 -124 -73 -180 -81 l-45 -6 -32 57 c-92 162 -288 426 -472
635 -214 241 -478 510 -502 510 -10 0 41 -83 187 -305 197 -300 267 -398 414
-580 70 -86 151 -190 180 -231 52 -72 53 -74 28 -74 -74 0 -334 79 -526 160
-98 41 -255 114 -267 124 -1 1 -9 76 -18 166 -9 91 -18 176 -20 190 -2 14 -9
68 -15 120 -18 153 -61 444 -65 449 -8 7 -13 -20 -39 -214 -44 -326 -49 -377
-50 -487 l-1 -107 -45 26 c-67 38 -253 173 -350 254 -88 73 -350 328 -350 340
0 4 66 28 148 54 225 72 572 215 572 236 0 12 -30 11 -275 -6 -218 -16 -441
-39 -534 -55 -83 -15 -86 -14 -125 40 -62 87 -188 302 -237 405 -46 99 -85
212 -76 221 8 9 111 -36 422 -184 284 -135 338 -160 465 -215 180 -78 303
-127 307 -124 6 7 -258 208 -417 319 -195 135 -345 216 -553 299 -194 77 -229
103 -241 179 -19 122 66 211 246 259 132 35 143 35 163 4 10 -15 37 -48 60
-73 23 -25 95 -115 160 -200 195 -256 272 -344 528 -608 71 -73 131 -131 134
-128 7 7 -165 300 -259 439 -80 120 -124 180 -253 342 -92 115 -120 160 -136
213 -11 37 -10 45 2 53 17 11 113 3 224 -18z"/>
</g>
</svg>
